<svg width="125" height="116" viewBox="0 0 125 116" fill="none" xmlns="http://www.w3.org/2000/svg">
<rect y="16" width="20" height="100" rx="10" fill="#9C649C" fill-opacity="0.68"/>
<path d="M3.66667 66C3.66667 68.9455 6.05448 71.3333 9 71.3333C11.9455 71.3333 14.3333 68.9455 14.3333 66C14.3333 63.0545 11.9455 60.6667 9 60.6667C6.05448 60.6667 3.66667 63.0545 3.66667 66ZM45 78.0005L44.6838 78.9492L45.2299 79.1312L45.6616 78.7503L45 78.0005ZM79 48L79.4679 47.1162L78.8568 46.7927L78.3384 47.2502L79 48ZM107.667 66C107.667 68.9455 110.054 71.3333 113 71.3333C115.946 71.3333 118.333 68.9455 118.333 66C118.333 63.0545 115.946 60.6667 113 60.6667C110.054 60.6667 107.667 63.0545 107.667 66ZM8.68376 66.9487L44.6838 78.9492L45.3162 77.0518L9.31624 65.0513L8.68376 66.9487ZM45.6616 78.7503L79.6616 48.7498L78.3384 47.2502L44.3384 77.2507L45.6616 78.7503ZM78.5321 48.8838L112.532 66.8838L113.468 65.1162L79.4679 47.1162L78.5321 48.8838Z" fill="#570E57"/>
<rect x="35" width="20" height="116" rx="10" fill="#9C649C" fill-opacity="0.68"/>
<rect x="70" y="16" width="20" height="100" rx="10" fill="#9C649C" fill-opacity="0.68"/>
<circle cx="80" cy="51" r="5" fill="#570E57"/>
<rect x="105" y="28" width="20" height="88" rx="10" fill="#9C649C" fill-opacity="0.68"/>
</svg>
