<svg width="151" height="48" viewBox="0 0 151 48" fill="none" xmlns="http://www.w3.org/2000/svg">
<path d="M0.666667 42C0.666667 44.9455 3.05448 47.3333 6 47.3333C8.94552 47.3333 11.3333 44.9455 11.3333 42C11.3333 39.0545 8.94552 36.6667 6 36.6667C3.05448 36.6667 0.666667 39.0545 0.666667 42ZM26 20.1601L26.5294 19.3117L25.824 18.8716L25.2625 19.4847L26 20.1601ZM61 42L60.4706 42.8484L61.4755 43.4755L61.9251 42.3796L61 42ZM77 3L77.8571 2.4849L76.8309 0.777372L76.0748 2.62044L77 3ZM92 27.9599L91.1429 28.475L91.7246 29.4429L92.615 28.7484L92 27.9599ZM102 20.1601H103V18.1119L101.385 19.3716L102 20.1601ZM102 27.9599H101V29.6617L102.487 28.8334L102 27.9599ZM116 20.1601L116.487 21.0337L117 20.7477V20.1601H116ZM116 3L116.69 2.27621L115 0.665047V3H116ZM134 20.1601L134.807 19.5691L134.754 19.4975L134.69 19.4363L134 20.1601ZM6.73749 42.6754L26.7375 20.8355L25.2625 19.4847L5.26251 41.3246L6.73749 42.6754ZM25.4706 21.0085L60.4706 42.8484L61.5294 41.1516L26.5294 19.3117L25.4706 21.0085ZM61.9251 42.3796L77.9251 3.37956L76.0748 2.62044L60.0748 41.6204L61.9251 42.3796ZM76.1428 3.5151L91.1429 28.475L92.8571 27.4448L77.8571 2.4849L76.1428 3.5151ZM92.615 28.7484L102.615 20.9486L101.385 19.3716L91.385 27.1714L92.615 28.7484ZM101 20.1601V27.9599H103V20.1601H101ZM102.487 28.8334L116.487 21.0337L115.513 19.2865L101.513 27.0863L102.487 28.8334ZM117 20.1601V3H115V20.1601H117ZM115.31 3.72379L133.31 20.8839L134.69 19.4363L116.69 2.27621L115.31 3.72379ZM133.193 20.7511L149.193 42.591L150.807 41.409L134.807 19.5691L133.193 20.7511Z" fill="#1DC9FF"/>
</svg>
